<svg width="1200" height="630" viewBox="0 0 1200 630" fill="none" xmlns="http://www.w3.org/2000/svg">
  <rect width="1200" height="630" fill="#0d0a09"/>

  <!-- Subtle gradient -->
  <radialGradient id="glow" cx="20%" cy="30%" r="50%">
    <stop offset="0%" stop-color="#2596be" stop-opacity="0.12"/>
    <stop offset="100%" stop-color="#0d0a09" stop-opacity="0"/>
  </radialGradient>
  <rect width="1200" height="630" fill="url(#glow)"/>

  <!-- Logo mark -->
  <g transform="translate(100, 200)" stroke="#f3ece4" stroke-width="3.5" stroke-linecap="round">
    <line x1="13" y1="3" x2="33" y2="3"/>
    <line x1="33" y1="3" x2="33" y2="33"/>
    <line x1="3" y1="33" x2="23" y2="33"/>
    <line x1="3" y1="3" x2="3" y2="33"/>
    <line x1="13" y1="13" x2="13" y2="23"/>
    <line x1="23" y1="3" x2="23" y2="13"/>
    <line x1="23" y1="23" x2="23" y2="33"/>
    <line x1="13" y1="23" x2="23" y2="23"/>
  </g>
  <path d="M108 203 L108 208 L118 208 L118 218 L128 218 L128 228 L128 233" transform="" stroke="#2596be" stroke-width="3.5" stroke-linecap="round" stroke-linejoin="round"/>

  <!-- "cerno" text -->
  <text x="148" y="226" font-family="ui-monospace, SFMono-Regular, Menlo, monospace" font-size="24" font-weight="500" fill="#f3ece4" letter-spacing="-0.02em">Cerno</text>

  <!-- Headline -->
  <text x="100" y="330" font-family="ui-serif, Georgia, serif" font-size="56" font-weight="400" fill="#f3ece4" letter-spacing="-0.03em">Human verification</text>
  <text x="100" y="395" font-family="ui-serif, Georgia, serif" font-size="56" font-weight="400" fill="#f3ece4" letter-spacing="-0.03em">without hardware</text>

  <!-- Subtext -->
  <text x="100" y="445" font-family="ui-sans-serif, system-ui, sans-serif" font-size="20" fill="#978f87">Motor-control analysis of maze interaction. Open-source TypeScript SDK.</text>

  <!-- URL -->
  <text x="100" y="530" font-family="ui-monospace, SFMono-Regular, Menlo, monospace" font-size="16" fill="#665f59">cerno.sh</text>
</svg>
